HIERARCHY
ROOT hip
{
  OFFSET 0 0 0
  CHANNELS 6 Xposition Yposition Zposition Zrotation Yrotation Xrotation
  JOINT abdomen
  {
    OFFSET 0 20.6881 -0.73152
    CHANNELS 3 Zrotation Xrotation Yrotation
    JOINT chest
    {
      OFFSET 0 11.7043 -0.48768
      CHANNELS 3 Zrotation Xrotation Yrotation
      JOINT neck
      {
        OFFSET 0 22.1894 -2.19456
        CHANNELS 3 Zrotation Xrotation Yrotation
        JOINT head
        {
          OFFSET -0.24384 7.07133 1.2192
          CHANNELS 3 Zrotation Xrotation Yrotation
          JOINT leftEye
          {
            OFFSET 4.14528 8.04674 8.04672
            CHANNELS 3 Zrotation Xrotation Yrotation
            End Site
            {
              OFFSET 1 0 0
            }
          }
          JOINT rightEye
          {
            OFFSET -3.6576 8.04674 8.04672
            CHANNELS 3 Zrotation Xrotation Yrotation
            End Site
            {
              OFFSET 1 0 0
            }
          }
        }
      }
      JOINT rCollar
      {
        OFFSET -2.68224 19.2634 -4.8768
        CHANNELS 3 Zrotation Xrotation Yrotation
        JOINT rShldr
        {
          OFFSET -8.77824 -1.95073 1.46304
          CHANNELS 3 Zrotation Xrotation Yrotation
          JOINT rForeArm
          {
            OFFSET -28.1742 -1.7115 0.48768
            CHANNELS 3 Zrotation Xrotation Yrotation
            JOINT rHand
            {
              OFFSET -22.5879 0.773209 7.07136
              CHANNELS 3 Zrotation Xrotation Yrotation
              JOINT rThumb1
              {
                OFFSET -1.2192 -0.487915 3.41376
                CHANNELS 3 Zrotation Xrotation Yrotation
                JOINT rThumb2
                {
                  OFFSET -3.37035 -0.52449 3.41376
                  CHANNELS 3 Zrotation Xrotation Yrotation
                  End Site
                  {
                    OFFSET -1.78271 -1.18214 1.43049
                  }
                }
              }
              JOINT rIndex1
              {
                OFFSET -7.75947 0.938293 5.60832
                CHANNELS 3 Zrotation Xrotation Yrotation
                JOINT rIndex2
                {
                  OFFSET -2.54057 -0.884171 1.56538
                  CHANNELS 3 Zrotation Xrotation Yrotation
                  End Site
                  {
                    OFFSET -1.62519 -0.234802 1.16502
                  }
                }
              }
              JOINT rMid1
              {
                OFFSET -8.24714 1.18213 3.41376
                CHANNELS 3 Zrotation Xrotation Yrotation
                JOINT rMid2
                {
                  OFFSET -3.10165 -0.590103 1.0647
                  CHANNELS 3 Zrotation Xrotation Yrotation
                  End Site
                  {
                    OFFSET -2.48547 -0.328903 0.83742
                  }
                }
              }
              JOINT rRing1
              {
                OFFSET -8.82822 0.546677 1.51678
                CHANNELS 3 Zrotation Xrotation Yrotation
                JOINT rRing2
                {
                  OFFSET -2.60934 -0.819778 -0.0198488
                  CHANNELS 3 Zrotation Xrotation Yrotation
                  End Site
                  {
                    OFFSET -2.33842 -0.294052 0.168128
                  }
                }
              }
              JOINT rPinky1
              {
                OFFSET -8.27202 -0.0477905 -0.4584
                CHANNELS 3 Zrotation Xrotation Yrotation
                JOINT rPinky2
                {
                  OFFSET -1.82734 -0.647385 -0.700984
                  CHANNELS 3 Zrotation Xrotation Yrotation
                  End Site
                  {
                    OFFSET -1.69225 -0.51767 -0.607171
                  }
                }
              }
            }
          }
        }
      }
      JOINT lCollar
      {
        OFFSET 2.68224 19.2634 -4.8768
        CHANNELS 3 Zrotation Xrotation Yrotation
        JOINT lShldr
        {
          OFFSET 8.77824 -1.95073 1.46304
          CHANNELS 3 Zrotation Xrotation Yrotation
          JOINT lForeArm
          {
            OFFSET 28.1742 -1.7115 0.48768
            CHANNELS 3 Zrotation Xrotation Yrotation
            JOINT lHand
            {
              OFFSET 22.5879 0.773209 7.07136
              CHANNELS 3 Zrotation Xrotation Yrotation
              JOINT lThumb1
              {
                OFFSET 1.2192 -0.487915 3.41376
                CHANNELS 3 Zrotation Xrotation Yrotation
                JOINT lThumb2
                {
                  OFFSET 3.37035 -0.52449 3.41376
                  CHANNELS 3 Zrotation Xrotation Yrotation
                  End Site
                  {
                    OFFSET 1.78271 -1.18214 1.43049
                  }
                }
              }
              JOINT lIndex1
              {
                OFFSET 7.75947 0.938293 5.60832
                CHANNELS 3 Zrotation Xrotation Yrotation
                JOINT lIndex2
                {
                  OFFSET 2.54057 -0.884171 1.56538
                  CHANNELS 3 Zrotation Xrotation Yrotation
                  End Site
                  {
                    OFFSET 1.62519 -0.234802 1.16502
                  }
                }
              }
              JOINT lMid1
              {
                OFFSET 8.24714 1.18213 3.41376
                CHANNELS 3 Zrotation Xrotation Yrotation
                JOINT lMid2
                {
                  OFFSET 3.10165 -0.590103 1.0647
                  CHANNELS 3 Zrotation Xrotation Yrotation
                  End Site
                  {
                    OFFSET 2.48547 -0.328903 0.83742
                  }
                }
              }
              JOINT lRing1
              {
                OFFSET 8.82822 0.546677 1.51678
                CHANNELS 3 Zrotation Xrotation Yrotation
                JOINT lRing2
                {
                  OFFSET 2.60934 -0.819778 -0.0198488
                  CHANNELS 3 Zrotation Xrotation Yrotation
                  End Site
                  {
                    OFFSET 2.33842 -0.294052 0.168128
                  }
                }
              }
              JOINT lPinky1
              {
                OFFSET 8.27202 -0.0477905 -0.4584
                CHANNELS 3 Zrotation Xrotation Yrotation
                JOINT lPinky2
                {
                  OFFSET 1.82734 -0.647385 -0.700984
                  CHANNELS 3 Zrotation Xrotation Yrotation
                  End Site
                  {
                    OFFSET 1.69225 -0.51767 -0.607171
                  }
                }
              }
            }
          }
        }
      }
    }
  }
  JOINT rButtock
  {
    OFFSET -8.77824 4.35084 1.2192
    CHANNELS 3 Zrotation Xrotation Yrotation
    JOINT rThigh
    {
      OFFSET 0 -1.70687 -2.19456
      CHANNELS 3 Zrotation Xrotation Yrotation
      JOINT rShin
      {
        OFFSET 0 -36.8199 0.73152
        CHANNELS 3 Zrotation Xrotation Yrotation
        JOINT rFoot
        {
          OFFSET 0.73152 -45.1104 -5.12064
          CHANNELS 3 Zrotation Xrotation Yrotation
          End Site
          {
            OFFSET -1.1221 -3.69964 12.103
          }
        }
      }
    }
  }
  JOINT lButtock
  {
    OFFSET 8.77824 4.35084 1.2192
    CHANNELS 3 Zrotation Xrotation Yrotation
    JOINT lThigh
    {
      OFFSET 0 -1.70687 -2.19456
      CHANNELS 3 Zrotation Xrotation Yrotation
      JOINT lShin
      {
        OFFSET 0 -36.8199 0.73152
        CHANNELS 3 Zrotation Xrotation Yrotation
        JOINT lFoot
        {
          OFFSET -0.73152 -45.1104 -5.12064
          CHANNELS 3 Zrotation Xrotation Yrotation
          End Site
          {
            OFFSET 1.1221 -3.69964 12.103
          }
        }
      }
    }
  }
}
MOTION
Frames:	4
Frame Time:	0.00833333
14.9483 68.5538 110.979 172.099 -5.4652 -150.011 -7.56349 -18.0057 -8.66247 3.7168 14.3619 -2.59911 0.453776 14.4335 -3.11516 1.07051 -2.38947 -2.70761 -0.0 0.0 0.0 -0.0 0.0 0.0 1.19147e-13 -2.26814e-13 -7.45225e-14 86.3508 8.9722 -10.0061 -15.9805 -8.6689 29.632 -0.0659671 -7.30554 -1.03239 2.33592e-11 -2.18198e-09 1.42882e-09 3.90019e-11 -3.7712e-09 2.47141e-09 2.33625e-11 -2.18198e-09 1.42881e-09 7.73091 5.47488 0.417314 2.33589e-11 -2.18198e-09 1.42882e-09 2.90554 0.965183 0.102902 2.33638e-11 -2.18198e-09 1.42882e-09 10.2786 0.731801 0.0259123 2.33586e-11 -2.18198e-09 1.42883e-09 2.22167 -0.733487 -0.20892 1.1889e-13 -2.26814e-13 -7.48393e-14 -70.6451 19.8016 -5.19692 14.2372 -7.14739 -26.0328 0.000714284 0.609594 -0.0856837 -1.25186e-10 -1.70052e-09 -2.50737e-09 -2.2079e-10 -2.93973e-09 -4.33369e-09 -1.25194e-10 -1.70052e-09 -2.50736e-09 -7.73091 5.47488 -0.417314 -1.25187e-10 -1.70052e-09 -2.50737e-09 -2.90554 0.965183 -0.102902 -1.25197e-10 -1.70053e-09 -2.50737e-09 -10.2786 0.731801 -0.0259123 -1.25183e-10 -1.70052e-09 -2.50738e-09 -2.22167 -0.733487 0.20892 -2.03217e-16 0.0 -3.88251e-19 -9.91202 -47.7038 2.18832 -0.0357704 21.2337 -0.163976 0.31502 -9.71952 -11.6846 2.03217e-16 0.0 3.88251e-19 -0.931208 -47.1505 -23.9409 2.19994 73.1544 -3.72969 0.437369 -22.3652 5.91002
15.0207 68.6676 110.119 172.693 -4.0466 -151.804 -7.30509 -17.7792 -8.36712 3.66964 14.3214 -2.51278 0.457581 14.4926 -3.12883 1.10492 -2.32145 -2.6947 -0.0 0.0 0.0 -0.0 0.0 0.0 4.56086e-14 -3.17136e-13 -2.03592e-13 86.3256 9.00183 -10.0327 -15.9727 -8.66185 29.6153 -0.0671248 -7.37115 -1.04176 1.03849e-09 -3.50587e-09 1.45307e-09 1.79562e-09 -6.06329e-09 2.51582e-09 1.03849e-09 -3.50587e-09 1.45306e-09 7.73091 5.47488 0.417314 1.03849e-09 -3.50587e-09 1.45307e-09 2.90554 0.965183 0.102902 1.03849e-09 -3.50587e-09 1.45307e-09 10.2786 0.731801 0.0259123 1.03849e-09 -3.50587e-09 1.45308e-09 2.22167 -0.733487 -0.20892 4.53838e-14 -3.17137e-13 -2.03873e-13 -70.701 20.1251 -5.2699 14.3253 -7.22004 -26.2106 0.000434056 0.512747 -0.0720669 7.81763e-10 -1.48887e-09 -3.28322e-09 1.34411e-09 -2.57304e-09 -5.67777e-09 7.81754e-10 -1.48888e-09 -3.2832e-09 -7.73091 5.47488 -0.417314 7.8176e-10 -1.48888e-09 -3.28321e-09 -2.90554 0.965183 -0.102902 7.81752e-10 -1.48888e-09 -3.28322e-09 -10.2786 0.731801 -0.0259123 7.81766e-10 -1.48888e-09 -3.28322e-09 -2.22167 -0.733487 0.20892 -2.03217e-16 0.0 -3.88251e-19 -9.53888 -47.1786 2.36356 -0.0390066 21.0728 -0.183921 0.325878 -9.63544 -11.5125 2.03217e-16 0.0 3.88251e-19 -1.04934 -47.2225 -23.7529 2.3702 74.1095 -3.94987 0.669054 -22.5518 6.64502
15.2352 68.6258 110.539 172.109 -5.1887 -150.63 -7.10684 -17.6162 -8.15505 3.67273 14.2726 -2.45472 0.434374 14.5311 -3.13519 1.1364 -2.26867 -2.67674 -0.0 0.0 0.0 -0.0 0.0 0.0 -1.6624e-14 -3.59403e-13 -2.64831e-13 86.2537 9.03556 -10.0057 -15.9621 -8.65209 29.5927 -0.0679548 -7.41729 -1.04835 1.83625e-09 -4.12957e-09 1.60946e-09 3.17492e-09 -7.14323e-09 2.7891e-09 1.83625e-09 -4.12957e-09 1.60946e-09 7.73091 5.47488 0.417314 1.83625e-09 -4.12957e-09 1.60946e-09 2.90554 0.965183 0.102902 1.83625e-09 -4.12957e-09 1.60946e-09 10.2786 0.731801 0.0259123 1.83624e-09 -4.12957e-09 1.60947e-09 2.22167 -0.733487 -0.20892 -1.68226e-14 -3.59404e-13 -2.65079e-13 -70.7627 20.3981 -5.34377 14.3935 -7.27639 -26.3492 0.000296492 0.491668 -0.0691011 1.3099e-09 -1.48936e-09 -3.69101e-09 2.25485e-09 -2.57411e-09 -6.38449e-09 1.30989e-09 -1.48936e-09 -3.69099e-09 -7.73091 5.47488 -0.417314 1.30989e-09 -1.48937e-09 -3.691e-09 -2.90554 0.965183 -0.102902 1.30989e-09 -1.48937e-09 -3.691e-09 -10.2786 0.731801 -0.0259123 1.3099e-09 -1.48937e-09 -3.69101e-09 -2.22167 -0.733487 0.20892 -2.03217e-16 0.0 -3.88251e-19 -9.23371 -46.8224 2.52584 -0.0420779 20.9428 -0.202187 0.309018 -9.59961 -11.4404 2.03217e-16 0.0 3.88251e-19 -1.26837 -47.4931 -23.6336 2.59359 75.1802 -4.21653 0.846578 -22.7423 7.18443
15.3878 68.6582 110.282 172.088 -4.8206 -151.025 -6.98773 -17.5388 -8.06617 3.75347 14.2048 -2.43892 0.355654 14.5424 -3.12823 1.17529 -2.24209 -2.64603 -0.0 0.0 0.0 -0.0 0.0 0.0 -6.82402e-14 -3.40841e-13 -2.20631e-13 86.1051 9.07302 -9.90615 -15.9423 -8.63373 29.5509 -0.0683142 -7.43671 -1.05113 2.44315e-09 -3.76603e-09 2.16085e-09 4.22136e-09 -6.51362e-09 3.74689e-09 2.44316e-09 -3.76603e-09 2.16085e-09 7.73091 5.47488 0.417314 2.44315e-09 -3.76603e-09 2.16085e-09 2.90554 0.965183 0.102902 2.44315e-09 -3.76603e-09 2.16085e-09 10.2786 0.731801 0.0259123 2.44315e-09 -3.76603e-09 2.16085e-09 2.22167 -0.733487 -0.20892 -6.84237e-14 -3.40843e-13 -2.20849e-13 -70.8429 20.5988 -5.41726 14.4369 -7.31218 -26.4378 0.000356317 0.581089 -0.0816689 1.25428e-09 -2.01287e-09 -3.69742e-09 2.1567e-09 -3.48138e-09 -6.39574e-09 1.25427e-09 -2.01288e-09 -3.6974e-09 -7.73091 5.47488 -0.417314 1.25428e-09 -2.01288e-09 -3.69742e-09 -2.90554 0.965183 -0.102902 1.25427e-09 -2.01288e-09 -3.69742e-09 -10.2786 0.731801 -0.0259123 1.25428e-09 -2.01288e-09 -3.69742e-09 -2.22167 -0.733487 0.20892 -2.03217e-16 0.0 -3.88251e-19 -9.02609 -46.7151 2.67485 -0.0449772 20.8527 -0.21926 0.25466 -9.63262 -11.5234 2.03217e-16 0.0 3.88251e-19 -1.61069 -48.046 -23.6333 2.90007 76.439 -4.56536 0.96997 -22.953 7.54913
